<svg id="Layer_1" data-name="Layer 1" xmlns="http://www.w3.org/2000/svg" viewBox="0 0 525.36 525.35"><defs><style>.cls-1,.cls-2{stroke:#fff;stroke-miterlimit:10;}.cls-1{stroke-width:0.5px;}.cls-2{font-size:21px;font-family:MyriadPro-Regular, Myriad Pro;}.cls-3{letter-spacing:0em;}.cls-4{letter-spacing:0em;}.cls-5{letter-spacing:0em;}</style></defs><title>hard-mode</title><path class="cls-1" d="M513.22,364.37,382,137.1C423.81,113,460.39,102.83,508.64,102Z" transform="translate(-250.54 -101.69)"/><path class="cls-1" d="M513.22,364.37,283.7,237.14A259.11,259.11,0,0,1,382,137.1Z" transform="translate(-250.54 -101.69)"/><path class="cls-1" d="M513.22,364.37,250.84,369c-.84-48.26,9.47-89.6,32.86-131.81Z" transform="translate(-250.54 -101.69)"/><path class="cls-1" d="M513.22,364.37,288.28,499.52c-24.85-41.37-36.6-82.32-37.44-130.57Z" transform="translate(-250.54 -101.69)"/><path class="cls-1" d="M513.22,364.37,386,593.89c-42.21-23.4-72.86-53-97.72-94.37Z" transform="translate(-250.54 -101.69)"/><path class="cls-1" d="M513.22,364.37l4.58,262.38c-48.25.84-89.59-9.47-131.8-32.86Z" transform="translate(-250.54 -101.69)"/><path class="cls-1" d="M513.22,364.37,648.38,589.31c-41.37,24.85-82.32,36.6-130.58,37.44Z" transform="translate(-250.54 -101.69)"/><path class="cls-1" d="M513.22,364.37,742.74,491.59c-23.39,42.21-53,72.86-94.36,97.72Z" transform="translate(-250.54 -101.69)"/><path class="cls-1" d="M513.22,364.37l262.39-4.58c.84,48.25-9.47,89.59-32.87,131.8Z" transform="translate(-250.54 -101.69)"/><path class="cls-1" d="M513.22,364.37,738.16,229.21c24.86,41.37,36.6,82.32,37.45,130.58Z" transform="translate(-250.54 -101.69)"/><path class="cls-1" d="M513.22,364.37,640.45,134.85c42.21,23.39,72.86,53,97.71,94.36Z" transform="translate(-250.54 -101.69)"/><path class="cls-1" d="M513.22,364.37V101.94c48.27,0,85,9.51,127.23,32.91Z" transform="translate(-250.54 -101.69)"/><text class="cls-2" transform="translate(210.81 100.98)">F</text><text class="cls-2" transform="translate(115.99 146.94)">B fl<tspan class="cls-3" x="26.82" y="0">a</tspan><tspan x="36.85" y="0">t</tspan></text><text class="cls-2" transform="translate(71.55 227.24)">E fl<tspan class="cls-4" x="25.77" y="0">a</tspan><tspan class="cls-5" x="35.8" y="0">t</tspan></text><text class="cls-2" transform="translate(69.65 317.79)">A fl<tspan class="cls-3" x="28.29" y="0">a</tspan><tspan x="38.32" y="0">t </tspan></text><text class="cls-2" transform="translate(103.04 395.41)">D fl<tspan class="cls-3" x="29.42" y="0">a</tspan><tspan x="39.46" y="0">t/C#</tspan></text><text class="cls-2" transform="translate(183.43 439.32)">F#/G fl<tspan class="cls-3" x="56.87" y="0">a</tspan><tspan x="66.91" y="0">t</tspan></text><text class="cls-2" transform="translate(279.31 437.74)">B/C fl<tspan class="cls-4" x="46.2" y="0">a</tspan><tspan class="cls-5" x="56.24" y="0">t</tspan></text><text class="cls-2" transform="translate(381.14 391.09)">E </text><text class="cls-2" transform="translate(426.01 311.89)">A</text><text class="cls-2" transform="translate(423.86 221.34)">D</text><text class="cls-2" transform="translate(377.43 143.72)">G</text><text class="cls-2" transform="translate(300.39 100.19)">C</text></svg>