<svg xmlns="http://www.w3.org/2000/svg" xmlns:xlink="http://www.w3.org/1999/xlink" viewBox="0 0 403.88 403.88"><defs><style>.cls-1,.cls-2,.cls-3,.cls-4,.cls-5,.cls-6,.cls-7,.cls-8{stroke:#000;stroke-miterlimit:10;stroke-width:0.5px;}.cls-1{fill:url(#Orchid);}.cls-2{fill:url(#Orchid-2);}.cls-3{fill:url(#Orchid-3);}.cls-4{fill:url(#Orchid-4);}.cls-5{fill:url(#Orchid-5);}.cls-6{fill:url(#Orchid-6);}.cls-7{fill:url(#Orchid-7);}.cls-8{fill:url(#Orchid-8);}.cls-9{font-size:24px;font-family:MyriadPro-Regular, Myriad Pro;}.cls-10{letter-spacing:0em;}.cls-11{letter-spacing:0em;}</style><linearGradient id="Orchid" x1="59.32" y1="101.09" x2="201.94" y2="101.09" gradientUnits="userSpaceOnUse"><stop offset="0" stop-color="#ff7bac"/><stop offset="0.22" stop-color="#ff7bac" stop-opacity="0.76"/><stop offset="0.6" stop-color="#ff7bac" stop-opacity="0.36"/><stop offset="0.87" stop-color="#ff7bac" stop-opacity="0.1"/><stop offset="1" stop-color="#ff7bac" stop-opacity="0"/></linearGradient><linearGradient id="Orchid-2" x1="0.25" y1="130.63" x2="201.94" y2="130.63" xlink:href="#Orchid"/><linearGradient id="Orchid-3" x1="0.25" y1="273.24" x2="201.94" y2="273.24" xlink:href="#Orchid"/><linearGradient id="Orchid-4" x1="59.32" y1="302.78" x2="201.94" y2="302.78" xlink:href="#Orchid"/><linearGradient id="Orchid-5" x1="201.94" y1="302.78" x2="344.55" y2="302.78" xlink:href="#Orchid"/><linearGradient id="Orchid-6" x1="201.94" y1="273.24" x2="403.63" y2="273.24" xlink:href="#Orchid"/><linearGradient id="Orchid-7" x1="201.94" y1="130.63" x2="403.63" y2="130.63" xlink:href="#Orchid"/><linearGradient id="Orchid-8" x1="201.94" y1="101.09" x2="344.55" y2="101.09" xlink:href="#Orchid"/></defs><title>Asset 1</title><g id="Layer_2" data-name="Layer 2"><g id="Layer_1-2" data-name="Layer 1"><path class="cls-1" d="M201.94,201.94,59.32,59.32Q118.39.25,201.94.25Z"/><path class="cls-2" d="M201.94,201.94H.25q0-83.55,59.07-142.62Z"/><path class="cls-3" d="M201.94,201.94,59.32,344.55Q.25,285.48.25,201.94Z"/><path class="cls-4" d="M201.94,201.94V403.62q-83.55,0-142.62-59.07Z"/><path class="cls-5" d="M201.94,201.94,344.55,344.55q-59.07,59.07-142.61,59.07Z"/><path class="cls-6" d="M201.94,201.94H403.62q0,83.54-59.07,142.61Z"/><path class="cls-7" d="M201.94,201.94,344.55,59.32q59.07,59.07,59.07,142.62Z"/><path class="cls-8" d="M201.94,201.94V.25q83.54,0,142.61,59.07Z"/><text class="cls-9" transform="translate(142.03 82.31)">E </text><text class="cls-9" transform="translate(53.28 155.08)">E fl<tspan class="cls-10" x="29.45" y="0">a</tspan><tspan x="40.92" y="0">t</tspan></text><text class="cls-9" transform="translate(65.28 257.99)"><tspan xml:space="preserve"> A </tspan></text><text class="cls-9" transform="translate(125.45 330.76)">B fl<tspan class="cls-10" x="30.65" y="0">a</tspan><tspan class="cls-11" x="42.12" y="0">t</tspan></text><text class="cls-9" transform="translate(245.4 330.76)">D</text><text class="cls-9" transform="translate(320.32 257.99)">F</text><text class="cls-9" transform="translate(318.41 155.08)">G</text><text class="cls-9" transform="translate(246.43 82.31)">C</text></g></g></svg>